Coordinates
version=1
nRows=18
nColumns=22
inDegrees=yes

Units are S.I. units (second, meters, Newtons, ...)
If the header above contains a line with 'inDegrees', this indicates whether rotational values are in degrees (yes) or radians (no).

endheader
time	pelvis_tilt	pelvis_list	pelvis_rotation	pelvis_tx	pelvis_ty	pelvis_tz	hip_flexion_r	hip_adduction_r	hip_rotation_r	knee_angle_r	ankle_angle_r	subtalar_angle_r	hip_flexion_l	hip_adduction_l	hip_rotation_l	knee_angle_l	ankle_angle_l	subtalar_angle_l	lumbar_extension	lumbar_bending	lumbar_rotation
      0.01000000	      4.31220322	     -3.47497548	      6.98269310	     -1.37568792	      0.95477695	     -0.62042472	     -4.33977630	      4.18516853	    -10.64915562	     -6.67322578	      7.95513627	     -0.19263747	     -1.25937812	     -4.51395325	    -15.92182985	    -15.74012975	     20.57621848	     -6.05817549	    -11.58786585	      4.87044139	     -9.72355231
      0.02000000	      4.31275175	     -3.47344842	      6.98839492	     -1.37574941	      0.95478368	     -0.62044182	     -4.33748727	      4.18362451	    -10.64929323	     -6.66997234	      7.95234357	     -0.19369620	     -1.25648795	     -4.51033080	    -15.92497496	    -15.73477782	     20.57730268	     -6.05885654	    -11.59552587	      4.87582724	     -9.72267666
      0.03000000	      4.31414311	     -3.47142168	      6.99504510	     -1.37581888	      0.95479091	     -0.62046452	     -4.33593646	      4.18111414	    -10.64961724	     -6.66719880	      7.95004954	     -0.19497641	     -1.25376079	     -4.50635949	    -15.92803282	    -15.72961193	     20.57826156	     -6.05930087	    -11.60222834	      4.88326313	     -9.72206210
      0.04000000	      4.31618727	     -3.46922392	      7.00194715	     -1.37589455	      0.95479814	     -0.62048448	     -4.33501181	      4.17845355	    -10.65086443	     -6.66506627	      7.94785257	     -0.19650796	     -1.25135222	     -4.50253010	    -15.93049461	    -15.72469661	     20.57913269	     -6.05963487	    -11.60897591	      4.89105549	     -9.72136892
      0.05000000	      4.31918396	     -3.46676039	      7.00853824	     -1.37597221	      0.95480551	     -0.62050018	     -4.33496781	      4.17594381	    -10.65350763	     -6.66426197	      7.94560285	     -0.19810159	     -1.24970208	     -4.49882181	    -15.93170771	    -15.72088266	     20.57982361	     -6.05994310	    -11.61510112	      4.89849887	     -9.71984895
      0.06000000	      4.32341307	     -3.46381698	      7.01548620	     -1.37605031	      0.95481265	     -0.62051417	     -4.33608385	      4.17322184	    -10.65840519	     -6.66511492	      7.94277314	     -0.19976607	     -1.24893239	     -4.49474403	    -15.93132737	    -15.71818626	     20.58037551	     -6.06038352	    -11.62121520	      4.90602296	     -9.71644952
      0.07000000	      4.32604674	     -3.46220009	      7.01566021	     -1.37611192	      0.95481690	     -0.62048884	     -4.33640594	      4.17386943	    -10.65899485	     -6.66536531	      7.94252686	     -0.19986861	     -1.24772024	     -4.49416138	    -15.93121859	    -15.71749497	     20.58042365	     -6.06042627	    -11.62067194	      4.90690899	     -9.71598334
      0.08000000	      4.35326851	     -3.45548091	      7.03073432	     -1.37619737	      0.95485884	     -0.62051288	     -4.35526044	      4.16784597	    -10.72039041	     -6.68075443	      7.91761623	     -0.20717754	     -1.26869931	     -4.48729001	    -15.90178991	    -15.71930616	     20.58144808	     -6.06671900	    -11.65657419	      4.91269249	     -9.68087302
      0.09000000	      4.35797753	     -3.45233090	      7.03799472	     -1.37625319	      0.95486819	     -0.62051487	     -4.35802481	      4.16560514	    -10.72211488	     -6.68168471	      7.91661770	     -0.20754653	     -1.27065258	     -4.48403113	    -15.90304233	    -15.71522361	     20.58130264	     -6.06797797	    -11.65577389	      4.91914914	     -9.68172331
      0.10000000	      4.36097726	     -3.45052176	      7.03822760	     -1.37630838	      0.95487447	     -0.62047962	     -4.35765465	      4.16604146	    -10.72240296	     -6.68131213	      7.91652883	     -0.20755764	     -1.26996308	     -4.48393356	    -15.90297795	    -15.71457962	     20.58127813	     -6.06808368	    -11.65481964	      4.91996915	     -9.68149831
      0.11000000	      4.41794301	     -3.44231216	      7.06682101	     -1.37633345	      0.95497160	     -0.62051744	     -4.43122980	      4.16709023	    -10.77779890	     -6.65707661	      7.88327188	     -0.20961035	     -1.34380399	     -4.47471481	    -15.85300815	    -15.67807032	     20.56333903	     -6.10821796	    -11.71386931	      4.93032981	     -9.68600725
      0.12000000	      4.42486385	     -3.43594592	      7.07137301	     -1.37637522	      0.95498685	     -0.62049441	     -4.44329584	      4.16392610	    -10.77184699	     -6.64131093	      7.88657622	     -0.20855115	     -1.34720366	     -4.46983806	    -15.84756568	    -15.68032027	     20.55991314	     -6.11617039	    -11.71602100	      4.92694315	     -9.67000895
      0.13000000	      4.42938897	     -3.43321771	      7.07710793	     -1.37641061	      0.95499650	     -0.62046945	     -4.44536459	      4.16332591	    -10.76982839	     -6.64110645	      7.88627786	     -0.20852167	     -1.34916970	     -4.46958120	    -15.84696561	    -15.67986989	     20.55854521	     -6.11771052	    -11.71409275	      4.92984893	     -9.66736614
      0.14000000	      4.43208057	     -3.43096480	      7.07755424	     -1.37645424	      0.95500225	     -0.62042589	     -4.44448091	      4.16379783	    -10.76974569	     -6.64043063	      7.88627919	     -0.20851513	     -1.34903076	     -4.47005768	    -15.84676829	    -15.67964409	     20.55839073	     -6.11784915	    -11.71321194	      4.93051766	     -9.66698360
      0.15000000	      4.43871579	     -3.42773720	      7.09117729	     -1.37648295	      0.95501079	     -0.62040101	     -4.45156226	      4.16560147	    -10.76744885	     -6.63937052	      7.88609619	     -0.20850103	     -1.35181501	     -4.47123625	    -15.84209699	    -15.68107724	     20.55438950	     -6.12063263	    -11.71188574	      4.92940258	     -9.65787169
      0.16000000	      4.44097558	     -3.42545615	      7.09144367	     -1.37652655	      0.95501170	     -0.62035592	     -4.45119153	      4.16648774	    -10.76751913	     -6.63869266	      7.88611146	     -0.20849383	     -1.35159863	     -4.47160610	    -15.84157634	    -15.68094789	     20.55412072	     -6.12083799	    -11.71145504	      4.92984126	     -9.65734085
      0.17000000	      4.50595553	     -3.41798068	      7.12544874	     -1.37655617	      0.95511614	     -0.62035172	     -4.54704022	      4.17843503	    -10.77824619	     -6.58899239	      7.87470008	     -0.21149773	     -1.42917896	     -4.46737295	    -15.76303350	    -15.65232459	     20.51026127	     -6.18117069	    -11.78460061	      4.93118819	     -9.65733611
      0.18000000	      4.50943962	     -3.41428937	      7.13368986	     -1.37659738	      0.95511653	     -0.62030225	     -4.54822426	      4.18028176	    -10.77828899	     -6.59023073	      7.87399010	     -0.21166658	     -1.42904327	     -4.46786504	    -15.76343157	    -15.65167001	     20.51209234	     -6.18230185	    -11.78396707	      4.92426487	     -9.65167977
